name C:\Users\u0101727\Documents\MyRepositories\paper-ad\trackingsimulations_3d\Results\TrackSim\IK_c15.mot
datacolumns 32
datarows 14
range 3.85000000 4.05800000
endheader
time	pelvis_tilt	pelvis_list	pelvis_rotation	pelvis_tx	pelvis_ty	pelvis_tz	hip_flexion_l	hip_adduction_l	hip_rotation_l	hip_flexion_r	hip_adduction_r	hip_rotation_r	knee_angle_l	knee_angle_r	ankle_angle_l	ankle_angle_r	subtalar_angle_l	subtalar_angle_r	lumbar_extension	lumbar_bending	lumbar_rotation	arm_flex_l	arm_add_l	arm_rot_l	arm_flex_r	arm_add_r	arm_rot_r	elbow_flex_l	elbow_flex_r	pro_sup_l	pro_sup_r	
          3.85000000	          0.30985202	         -3.01610589	          7.10724263	          0.02663335	          0.92275374	         -0.22401116	        -11.41582161	         -4.75205359	          1.32419701	         26.40299255	          4.43900557	         -7.54035678	        -36.14475741	        -22.64765328	         -4.53457210	         -5.97798839	         13.03869471	        -11.00608433	         -3.93459619	          5.55542232	         -8.62854999	         -1.77151056	        -14.52015346	         19.21112264	         -9.29453095	        -15.62464320	         14.49967014	         22.97171784	         11.47432265	         86.51662706	         86.51662706	
          3.86600000	          0.46756087	         -4.00107023	          6.92688363	          0.05032343	          0.92360653	         -0.22274931	         -9.32647466	         -5.92841840	          1.20438741	         25.47400499	          5.83129178	         -7.43613764	        -40.71899720	        -23.91987992	        -10.44355829	         -3.99095261	         12.25423717	        -11.15665734	         -3.74554113	          6.82915997	         -8.18587456	         -2.26873711	        -14.01897021	         19.48637241	         -9.06850441	        -15.91324024	         14.48280144	         21.87530485	         11.79255975	         86.51662706	         86.51662706	
          3.88200000	          0.65261630	         -4.84749290	          6.86388700	          0.07307880	          0.92490004	         -0.22175592	         -6.89903646	         -6.77827070	          1.80869352	         24.20284484	          7.00765051	         -7.48314447	        -45.35470224	        -24.60970669	        -15.49684384	         -1.98015476	         11.20115486	        -10.95230810	         -3.73035697	          7.93579686	         -7.78109333	         -2.62377114	        -13.58450168	         19.90747180	         -8.73265718	        -16.20594279	         14.34764326	         20.83257965	         12.31403002	         86.51662706	         86.51662706	
          3.89800000	          0.86599291	         -5.58361679	          6.88978702	          0.09491683	          0.92663783	         -0.22095566	         -4.29826141	         -7.33879899	          2.78001308	         22.65678729	          8.03414214	         -7.59561001	        -49.71920925	        -24.78222009	        -18.34443646	         -0.15616579	          9.66455511	        -10.58511885	         -3.87952818	          8.90315629	         -7.37049907	         -2.83684780	        -13.23050197	         20.47722322	         -8.31330750	        -16.50962053	         14.11533011	         19.89294073	         13.06456051	         86.51662706	         86.51662706	
          3.91400000	          1.09285551	         -6.11758405	          7.01849037	          0.11592400	          0.92895391	         -0.22035034	         -1.50327791	         -7.52857630	          4.01014222	         20.89692579	          8.82330349	         -7.72482674	        -53.85882819	        -24.53623683	        -19.22460458	          1.41793543	          8.07983724	        -10.11574069	         -4.16411861	          9.62184594	         -6.97895263	         -2.92645254	        -12.98042700	         21.15522356	         -7.84740947	        -16.80549486	         13.81669065	         19.07496706	         14.07533788	         86.51662706	         86.51662706	
          3.93000000	          1.30955566	         -6.41212390	          7.26195031	          0.13624557	          0.93184519	         -0.21993992	          1.47276908	         -7.32570592	          5.39675930	         18.98889896	          9.33214529	         -7.87993575	        -57.69824759	        -23.96674559	        -18.48530893	          2.75166209	          6.44669203	         -9.55123013	         -4.52562289	         10.04319671	         -6.63985421	         -2.93422759	        -12.84516655	         21.87234048	         -7.37316514	        -17.08628684	         13.47497072	         18.40393508	         15.35282948	         86.51662706	         86.51662706	
          3.94600000	          1.48648384	         -6.45289667	          7.57369374	          0.15608100	          0.93520016	         -0.21964338	          4.57103592	         -6.74458745	          6.79066193	         16.99759850	          9.55701832	         -8.04598880	        -61.05886227	        -23.16501468	        -16.79206552	          3.87567463	          5.03349015	         -8.89398875	         -4.89629927	         10.14187092	         -6.33843937	         -2.91920298	        -12.82482897	         22.53501198	         -6.92104934	        -17.34901634	         13.11053328	         17.90246044	         16.87070398	         86.51662706	         86.51662706	
          3.96200000	          1.59739588	         -6.25408530	          7.87434537	          0.17561820	          0.93883760	         -0.21934985	          7.70983698	         -5.83974255	          8.01392070	         14.98329544	          9.52814946	         -8.19019992	        -63.76345192	        -22.21492824	        -14.46166260	          4.81664172	          3.91347957	         -8.16366335	         -5.22038606	          9.92724824	         -6.02352657	         -2.93992739	        -12.90600912	         23.04295389	         -6.50713035	        -17.59758390	         12.73915962	         17.59210698	         18.57479152	         86.51662706	         86.51662706	
          3.97800000	          1.62110630	         -5.85011556	          8.05189717	          0.19499265	          0.94254153	         -0.21890723	         10.80883731	         -4.69984811	          8.89164607	         13.01328055	          9.30454681	         -8.22403282	        -65.68446336	        -21.20678216	        -11.77169528	          5.57882890	          2.99120923	         -7.43990143	         -5.46688859	          9.43127583	         -5.60063224	         -3.04187811	        -13.06681283	         23.30513246	         -6.13446907	        -17.84099393	         12.37439951	         17.49087508	         20.40092322	         86.51662706	         86.51662706	
          3.99400000	          1.55333060	         -5.28216623	          8.03264542	          0.21426177	          0.94609593	         -0.21822678	         13.79826037	         -3.42717179	          9.33568520	         11.14500488	          8.92923817	         -8.09934640	        -66.71799882	        -20.23396758	         -9.09173898	          6.19906209	          2.25576197	         -6.75720072	         -5.63413795	          8.70076312	         -5.01087369	         -3.24477423	        -13.28147452	         23.26380928	         -5.78672292	        -18.09182880	         12.02499685	         17.59724864	         22.29217752	         86.51662706	         86.51662706	
          4.01000000	          1.41363269	         -4.62242246	          7.80099307	          0.23344737	          0.94932097	         -0.21730735	         16.61470880	         -2.15429366	          9.34059204	          9.39959856	          8.46099672	         -7.82103243	        -66.81016905	        -19.34847729	         -6.58060107	          6.71430686	          1.50954862	         -6.10861557	         -5.74113090	          7.82823477	         -4.25133469	         -3.54457548	        -13.51727097	         22.91167232	         -5.43304660	        -18.36861824	         11.69399835	         17.88448315	         24.19815815	         86.51662706	         86.51662706	
          4.02600000	          1.24237931	         -3.97018856	          7.37366134	          0.25256804	          0.95208466	         -0.21617427	         19.20136029	         -1.03012811	          8.97444089	          7.75014537	          7.99625753	         -7.41040191	        -65.97026883	        -18.53997861	         -4.29121745	          7.12830931	          0.72612572	         -5.51315077	         -5.82355265	          6.94054002	         -3.34431354	         -3.91899339	        -13.73844080	         22.28733947	         -5.04137282	        -18.69111553	         11.38390331	         18.30228360	         26.07367414	         86.51662706	         86.51662706	
          4.04200000	          1.08518701	         -3.39824983	          6.80727810	          0.27161945	          0.95428436	         -0.21490399	         21.50798423	         -0.14418493	          8.36045232	          6.15990316	          7.59559316	         -6.93516513	        -64.22076915	        -17.80850350	         -2.32559771	          7.48130710	         -0.23577493	         -4.93593340	         -5.92451228	          6.13555508	         -2.35149272	         -4.32983732	        -13.91684598	         21.46606937	         -4.58143594	        -19.07127448	         11.10059422	         18.77979668	         27.88532456	         86.51662706	         86.51662706	
          4.05800000	          0.98209569	         -2.93616511	          6.15997036	          0.29061052	          0.95584638	         -0.21357758	         23.47726944	          0.48214147	          7.61399456	          4.59127298	          7.27425382	         -6.46421820	        -61.60105370	        -17.16987579	         -0.48266208	          7.84379118	         -1.41003313	         -4.30646006	         -6.08547641	          5.45901355	         -1.33708665	         -4.73725229	        -14.03575899	         20.54455366	         -4.03254293	        -19.51081909	         10.85682474	         19.23908214	         29.60928410	         86.51662706	         86.51662706	
